<?xml version="1.0" standalone="no"?><!DOCTYPE svg PUBLIC "-//W3C//DTD SVG 1.1//EN" "http://www.w3.org/Graphics/SVG/1.1/DTD/svg11.dtd"><svg t="1777698585483" class="icon" viewBox="0 0 1024 1024" version="1.1" xmlns="http://www.w3.org/2000/svg" p-id="6500" xmlns:xlink="http://www.w3.org/1999/xlink" width="200" height="200"><path d="M0 0m146.285714 0l731.428572 0q146.285714 0 146.285714 146.285714l0 731.428572q0 146.285714-146.285714 146.285714l-731.428572 0q-146.285714 0-146.285714-146.285714l0-731.428572q0-146.285714 146.285714-146.285714Z" fill="#FFFFFF" p-id="6501"></path><path d="M179.053714 480.512H255.268571v76.288H179.053714V480.548571z m294.765715 76.288h76.324571v76.251429H473.856v-76.288 0.036571z m228.827428 76.251429h-76.251428v66.011428h142.262857v-142.262857h-66.011429v76.251429z" fill="#624AFF" p-id="6502"></path><path d="M550.144 480.548571h76.251429v76.288h-76.251429V480.512zM179.053714 404.260571H255.268571V480.548571H179.053714V404.260571v0.036572z" fill="#36CFD1" p-id="6503"></path><path d="M768.694857 480.512h76.251429v76.288h-76.251429z" fill="#624AFF" p-id="6504"></path><path d="M768.694857 404.297143h76.251429V480.548571h-76.251429V404.260571z" fill="#36CFD1" p-id="6505"></path><path d="M626.395429 338.285714v66.011429h76.251428V480.548571h66.011429V338.285714z" fill="#624AFF" p-id="6506"></path><path d="M397.531429 480.512h76.324571v76.288H397.531429z" fill="#36CFD1" p-id="6507"></path><path d="M321.316571 404.297143h76.288V338.285714h-142.262857v142.262857h65.974857V404.297143z m0 152.502857H255.305143v142.262857h142.262857V633.051429H321.353143v-76.251429z" fill="#624AFF" p-id="6508"></path></svg>